{
  "accessors": [
    {
      "bufferView": 2,
      "componentType": 5126,
      "count": 5094,
      "max": [
        0.2925949990749359,
        0.766539990901947,
        0.564877986907959
      ],
      "min": [
        -0.5677270293235779,
        -0.2745169997215271,
        -0.04704200103878975
      ],
      "type": "VEC3"
    },
    {
      "bufferView": 2,
      "byteOffset": 61128,
      "componentType": 5126,
      "count": 5094,
      "max": [
        0.9974587559700012,
        0.998634397983551,
        0.9998894929885864
      ],
      "min": [
        -0.999423623085022,
        -0.9994551539421082,
        -0.9999700784683228
      ],
      "type": "VEC3"
    },
    {
      "bufferView": 1,
      "componentType": 5126,
      "count": 5094,
      "max": [
        0.9983289837837219,
        0.9365230202674866
      ],
      "min": [
        0.0016710000345483422,
        0.0016659999964758754
      ],
      "type": "VEC2"
    },
    {
      "bufferView": 0,
      "componentType": 5125,
      "count": 18840,
      "type": "SCALAR"
    }
  ],
  "asset": {
    "extras": {
      "author": "EFX (https://sketchfab.com/evan4129)",
      "license": "CC-BY-4.0 (http://creativecommons.org/licenses/by/4.0/)",
      "source": "https://sketchfab.com/3d-models/hiking-boots-lowpoly-1f25fa279bdc4f87b1374566e9e62923",
      "title": "Hiking Boots LOWPOLY"
    },
    "generator": "Sketchfab-16.33.0",
    "version": "2.0"
  },
  "bufferViews": [
    {
      "buffer": 0,
      "byteLength": 75360,
      "name": "floatBufferViews",
      "target": 34963
    },
    {
      "buffer": 0,
      "byteLength": 40752,
      "byteOffset": 75360,
      "byteStride": 8,
      "name": "floatBufferViews",
      "target": 34962
    },
    {
      "buffer": 0,
      "byteLength": 122256,
      "byteOffset": 116112,
      "byteStride": 12,
      "name": "floatBufferViews",
      "target": 34962
    }
  ],
  "buffers": [
    {
      "byteLength": 238368,
      "uri": "boots.bin"
    }
  ],
  "extensionsUsed": [
    "KHR_materials_specular"
  ],
  "images": [
    {
      "uri": "textures/HikiingBoot_baseColor.png"
    },
    {
      "uri": "textures/HikiingBoot_metallicRoughness.png"
    }
  ],
  "materials": [
    {
      "doubleSided": true,
      "extensions": {
        "KHR_materials_specular": {
          "specularColorFactor": [
            1.0,
            1.0,
            1.0
          ],
          "specularFactor": 0.16914337262742132
        }
      },
      "name": "HikiingBoot",
      "pbrMetallicRoughness": {
        "baseColorTexture": {
          "index": 0
        },
        "metallicFactor": 0.0,
        "metallicRoughnessTexture": {
          "index": 1
        },
        "roughnessFactor": 0.6202114128896405
      }
    }
  ],
  "meshes": [
    {
      "name": "Object_0",
      "primitives": [
        {
          "attributes": {
            "NORMAL": 1,
            "POSITION": 0,
            "TEXCOORD_0": 2
          },
          "indices": 3,
          "material": 0,
          "mode": 4
        }
      ]
    }
  ],
  "nodes": [
    {
      "children": [
        1
      ],
      "matrix": [
        1.0,
        0.0,
        0.0,
        0.0,
        0.0,
        0.08375809341669105,
        -0.9964861273765564,
        0.0,
        0.0,
        0.9964861273765564,
        0.08375809341669105,
        0.0,
        0.0,
        0.0,
        0.0,
        1.0
      ],
      "name": "Sketchfab_model"
    },
    {
      "children": [
        2
      ],
      "name": "HikingBootLOW.obj.cleaner.materialmerger.gles"
    },
    {
      "mesh": 0,
      "name": "Object_2"
    }
  ],
  "samplers": [
    {
      "magFilter": 9729,
      "minFilter": 9987,
      "wrapS": 10497,
      "wrapT": 10497
    }
  ],
  "scene": 0,
  "scenes": [
    {
      "name": "Sketchfab_Scene",
      "nodes": [
        0
      ]
    }
  ],
  "textures": [
    {
      "sampler": 0,
      "source": 0
    },
    {
      "sampler": 0,
      "source": 1
    }
  ]
}
